<?xml version="1.0" encoding="UTF-8"?>
<!DOCTYPE svg PUBLIC "-//W3C//DTD SVG 1.1//EN" "http://www.w3.org/Graphics/SVG/1.1/DTD/svg11.dtd">
<!-- Creator: CorelDRAW 2021 (64-Bit) -->
<svg xmlns="http://www.w3.org/2000/svg" xml:space="preserve" width="0.402189in" height="0.388512in" version="1.1" style="shape-rendering:geometricPrecision; text-rendering:geometricPrecision; image-rendering:optimizeQuality; fill-rule:evenodd; clip-rule:evenodd"
viewBox="0 0 28.16 27.2"
 xmlns:xlink="http://www.w3.org/1999/xlink"
 xmlns:xodm="http://www.corel.com/coreldraw/odm/2003">
 <defs>
  <style type="text/css">
   <![CDATA[
    .fil0 {fill:white;fill-rule:nonzero}
   ]]>
  </style>
 </defs>
 <g id="Layer_x0020_1">
  <metadata id="CorelCorpID_0Corel-Layer"/>
  <g id="_1407243661872">
   <path class="fil0" d="M5.54 27.2l-5.37 0 0 -0.53 0.26 -0.11c0.39,-0.21 0.74,-0.49 1.05,-0.84 0.35,-0.35 0.63,-0.77 0.84,-1.26l6.57 -13.57 1.21 1.73 -3.09 6.16 4.82 0 0 1.37 -4.09 0c-1.02,0 -1.71,0.47 -2.16,1.37l-1.05 2.1c-0.11,0.21 -0.21,0.42 -0.32,0.63 -0.32,0.74 -0.18,1.35 0.42,1.84 0.25,0.21 0.51,0.39 0.79,0.53l0.11 0.05 0 0.53zm5.13 -19.94l3.5 -7.26 0.58 0 4.06 8.94 -1.75 2.51 -2.99 -6.71 -2.16 4.3 -1.23 -1.78zm9.41 4.22l5.76 12.99c0.48,1.09 1.28,1.74 2.1,2.16l0.11 0.05 0 0.53 -5.95 0 0 -0.53 0.16 -0.05c0.21,-0.11 0.4,-0.25 0.58,-0.42 0.03,-0.03 0.05,-0.05 0.05,-0.05 0.39,-0.46 0.44,-0.96 0.16,-1.53l-2.05 -4.47 -5.58 0 0 -1.37 4.9 0 -1.99 -4.79 1.76 -2.52z"/>
   <path class="fil0" d="M16.95 26.97l-5.63 0 0 -0.53 0.16 -0.05c0.91,-0.42 1.37,-1.17 1.37,-2.26l0 -7.58 -9.63 -13.78c-0.46,-0.67 -1.05,-1.16 -1.79,-1.47l-0.11 -0.05 0 -0.53 5.58 0 0 0.53 -0.16 0.05c-0.25,0.11 -0.4,0.32 -0.47,0.63 -0.11,0.32 -0.05,0.6 0.16,0.84l8.31 12 8.1 -11.63c0.18,-0.28 0.22,-0.59 0.13,-0.92 -0.09,-0.33 -0.29,-0.57 -0.6,-0.71l-0.63 -0.32 0 -0.47 5.37 0 0 0.53 -0.16 0.05c-1.05,0.46 -1.91,1.16 -2.58,2.1l-8.94 12.84 0 7.89c0,1.09 0.46,1.84 1.37,2.26l0.16 0.05 0 0.53z"/>
   <path class="fil0" d="M28.15 23.8l-1.62 0 -2.7 -6.08 0 -11.63 2.63 -3.51 0 18.37c0,1.09 0.51,1.84 1.53,2.26l0.16 0.05 0 0.53zm-4.92 0l-1.08 0 0 -0.53 0.16 -0.05c0.19,-0.08 0.37,-0.17 0.53,-0.28l0.39 0.86z"/>
   <path class="fil0" d="M-0 23.8l1.72 0 2.59 -5.35 0 -12.36 -2.63 -3.51 0 18.37c0,1.09 -0.51,1.84 -1.53,2.26l-0.16 0.05 0 0.53zm3.8 0l2.19 0 0 -0.53 -0.16 -0.05c-0.56,-0.23 -0.96,-0.56 -1.22,-0.99 -0.09,0.13 -0.17,0.27 -0.25,0.42l-0.58 1.15z"/>
  </g>
 </g>
</svg>
