<?xml version="1.0" encoding="UTF-8"?>
<!DOCTYPE svg PUBLIC "-//W3C//DTD SVG 1.1//EN" "http://www.w3.org/Graphics/SVG/1.1/DTD/svg11.dtd">
<!-- Creator: CorelDRAW 2021 (64-Bit) -->
<svg xmlns="http://www.w3.org/2000/svg" xml:space="preserve" width="0.402189in" height="0.388516in" version="1.1" style="shape-rendering:geometricPrecision; text-rendering:geometricPrecision; image-rendering:optimizeQuality; fill-rule:evenodd; clip-rule:evenodd"
viewBox="0 0 28.26 27.3"
 xmlns:xlink="http://www.w3.org/1999/xlink"
 xmlns:xodm="http://www.corel.com/coreldraw/odm/2003">
 <defs>
  <style type="text/css">
   <![CDATA[
    .fil0 {fill:black;fill-rule:nonzero}
   ]]>
  </style>
 </defs>
 <g id="Layer_x0020_1">
  <metadata id="CorelCorpID_0Corel-Layer"/>
  <path class="fil0" d="M5.56 27.3l-5.39 0 0 -0.53 0.26 -0.11c0.39,-0.21 0.74,-0.49 1.06,-0.84 0.35,-0.35 0.63,-0.77 0.85,-1.27l6.59 -13.62 1.21 1.74 -3.1 6.18 4.84 0 0 1.37 -4.1 0c-1.02,0 -1.72,0.47 -2.17,1.37l-1.06 2.11c-0.11,0.21 -0.21,0.42 -0.32,0.63 -0.32,0.74 -0.18,1.36 0.42,1.85 0.25,0.21 0.51,0.39 0.79,0.53l0.11 0.05 0 0.53zm5.15 -20.01l3.51 -7.29 0.58 0 4.07 8.97 -1.75 2.52 -3 -6.74 -2.17 4.32 -1.24 -1.78zm9.45 4.23l5.78 13.04c0.49,1.09 1.28,1.75 2.11,2.17l0.11 0.05 0 0.53 -5.97 0 0 -0.53 0.16 -0.05c0.21,-0.11 0.4,-0.25 0.58,-0.42 0.03,-0.03 0.05,-0.05 0.05,-0.05 0.39,-0.46 0.44,-0.97 0.16,-1.53l-2.06 -4.49 -5.6 0 0 -1.37 4.91 0 -2 -4.8 1.76 -2.53z"/>
  <path class="fil0" d="M17.02 27.07l-5.65 0 0 -0.53 0.16 -0.05c0.92,-0.42 1.37,-1.18 1.37,-2.27l0 -7.6 -9.66 -13.84c-0.46,-0.67 -1.06,-1.16 -1.79,-1.48l-0.11 -0.05 0 -0.53 5.6 0 0 0.53 -0.16 0.05c-0.25,0.11 -0.4,0.32 -0.48,0.63 -0.11,0.32 -0.05,0.6 0.16,0.84l8.34 12.04 8.13 -11.67c0.18,-0.28 0.22,-0.59 0.13,-0.92 -0.09,-0.34 -0.29,-0.57 -0.61,-0.71l-0.63 -0.32 0 -0.48 5.39 0 0 0.53 -0.16 0.05c-1.06,0.46 -1.92,1.16 -2.59,2.11l-8.98 12.89 0 7.92c0,1.09 0.46,1.85 1.37,2.27l0.16 0.05 0 0.53z"/>
  <path class="fil0" d="M28.26 23.89l-1.62 0 -2.71 -6.1 0 -11.67 2.64 -3.52 0 18.44c0,1.09 0.51,1.85 1.53,2.27l0.16 0.05 0 0.53zm-4.94 0l-1.08 0 0 -0.53 0.16 -0.05c0.2,-0.08 0.37,-0.17 0.53,-0.28l0.39 0.86z"/>
  <path class="fil0" d="M-0 23.89l1.73 0 2.6 -5.37 0 -12.4 -2.64 -3.52 0 18.44c0,1.09 -0.51,1.85 -1.53,2.27l-0.16 0.05 0 0.53zm3.82 0l2.2 0 0 -0.53 -0.16 -0.05c-0.56,-0.23 -0.97,-0.56 -1.22,-1 -0.09,0.13 -0.17,0.27 -0.25,0.42l-0.58 1.16z"/>
 </g>
</svg>
