<?xml version="1.0" encoding="UTF-8"?>
<!DOCTYPE svg PUBLIC "-//W3C//DTD SVG 1.1//EN" "http://www.w3.org/Graphics/SVG/1.1/DTD/svg11.dtd">
<!-- Creator: CorelDRAW 2021 (64-Bit) -->
<svg xmlns="http://www.w3.org/2000/svg" xml:space="preserve" width="1.98226in" height="0.485138in" version="1.1" style="shape-rendering:geometricPrecision; text-rendering:geometricPrecision; image-rendering:optimizeQuality; fill-rule:evenodd; clip-rule:evenodd"
viewBox="0 0 1969.62 482.04"
 xmlns:xlink="http://www.w3.org/1999/xlink"
 xmlns:xodm="http://www.corel.com/coreldraw/odm/2003">
 <defs>
  <style type="text/css">
   <![CDATA[
    .str0 {stroke:white;stroke-width:6.62;stroke-linecap:round;stroke-linejoin:round;stroke-miterlimit:2.61313}
    .fil1 {fill:none}
    .fil0 {fill:white;fill-rule:nonzero}
   ]]>
  </style>
 </defs>
 <g id="Layer_x0020_1">
  <metadata id="CorelCorpID_0Corel-Layer"/>
  <path class="fil0" d="M916.84 425.52l0 -101.42c0,-0.56 0.47,-1.03 1.03,-1.03l50.22 0c0.56,0 1.02,0.47 1.02,1.03l0 8.65c0,0.56 -0.46,1.03 -1.02,1.03l-39.97 0 0 29.71 38.46 0c0.56,0 1.03,0.46 1.03,1.02l0 8.66c0,0.56 -0.47,1.03 -1.03,1.03l-38.46 0 0 51.31c0,0.56 -0.47,1.03 -1.03,1.03l-9.22 0c-0.56,0 -1.03,-0.47 -1.03,-1.03zm2.06 -100.39l0 99.37 7.16 0 0 -51.31c0,-0.56 0.47,-1.03 1.03,-1.03l38.46 0 0 -6.6 -38.46 0c-0.56,0 -1.03,-0.46 -1.03,-1.03l0 -31.77c0,-0.56 0.47,-1.03 1.03,-1.03l39.97 0 0 -6.6 -48.16 0zm156.06 57.1l32.29 0 -15.83 -40.3 -16.46 40.3zm33.79 2.06l-35.32 0 -0.38 -0.08c-0.52,-0.21 -0.77,-0.81 -0.56,-1.33l17.97 -44.01c0.09,-0.29 0.31,-0.53 0.61,-0.65 0.53,-0.2 1.13,0.05 1.33,0.58l17.3 44.06 0.09 0.41c0,0.56 -0.47,1.03 -1.03,1.03zm-62.18 40.76l44.54 -105.32c0.22,-0.52 0.82,-0.76 1.34,-0.54 0.26,0.11 0.45,0.32 0.55,0.56l42.67 105.4c0.21,0.52 -0.05,1.13 -0.57,1.33l-0.38 0.07 -10.05 0c-0.47,0 -0.88,-0.33 -1,-0.77l-12.65 -33.56 -40.02 0 -13.17 33.68c-0.16,0.4 -0.54,0.65 -0.95,0.65l-9.39 0c-0.56,0 -1.03,-0.47 -1.03,-1.03l0.12 -0.48zm45.46 -102.24l-43 101.69 7.14 0 13.16 -33.64c0.14,-0.4 0.52,-0.69 0.97,-0.69l41.43 0c0.41,0.01 0.8,0.26 0.95,0.67l12.7 33.66 7.82 0 -41.16 -101.69zm128.65 84.73l7.86 -4.19c0.5,-0.27 1.12,-0.08 1.38,0.42l0.08 0.2c0.7,2.4 1.67,4.53 2.88,6.36 1.21,1.84 2.68,3.42 4.39,4.72 1.73,1.3 3.63,2.28 5.69,2.93 2.07,0.65 4.33,0.99 6.76,0.99 3.09,0 5.84,-0.45 8.21,-1.35 2.35,-0.89 4.39,-2.23 6.08,-4.01 1.7,-1.78 2.98,-3.92 3.83,-6.41 0.86,-2.5 1.29,-5.38 1.29,-8.63 0,-2.36 -0.29,-4.51 -0.86,-6.44 -0.57,-1.91 -1.43,-3.63 -2.58,-5.15l-0.04 -0.05c-1.13,-1.52 -2.96,-3.18 -5.45,-4.96 -2.55,-1.83 -5.82,-3.81 -9.77,-5.92 -5.13,-2.7 -9.41,-5.25 -12.83,-7.65 -3.48,-2.44 -6.11,-4.73 -7.87,-6.86 -1.76,-2.15 -3.09,-4.53 -3.97,-7.11 -0.88,-2.58 -1.32,-5.37 -1.32,-8.37 0,-7.5 2.55,-13.61 7.64,-18.33 2.53,-2.35 5.45,-4.13 8.74,-5.3 3.28,-1.17 6.92,-1.76 10.89,-1.76 2.59,0 5.04,0.28 7.34,0.83l0.05 0.02c2.3,0.56 4.43,1.39 6.36,2.5 1.95,1.11 3.73,2.53 5.34,4.21 1.58,1.67 2.99,3.62 4.22,5.83 0.27,0.49 0.1,1.09 -0.37,1.37l-7.1 4.3c-0.48,0.29 -1.11,0.13 -1.4,-0.35l-0.04 -0.07c-0.69,-1.35 -1.53,-2.56 -2.5,-3.6 -0.97,-1.03 -2.1,-1.91 -3.35,-2.61l-0.07 -0.05c-1.23,-0.69 -2.59,-1.22 -4.07,-1.57l-0.1 -0.03c-1.47,-0.34 -3.09,-0.51 -4.85,-0.51 -2.39,0 -4.51,0.35 -6.36,1.03 -1.83,0.68 -3.44,1.71 -4.81,3.07 -1.38,1.36 -2.41,2.97 -3.09,4.8 -0.7,1.85 -1.04,3.97 -1.04,6.36 0,3.3 1.38,6.51 4.14,9.63 2.84,3.21 7.15,6.33 12.89,9.35 1.63,0.85 3.33,1.69 4.93,2.59 4.33,2.39 7.96,4.73 10.88,6.99 2.97,2.3 5.22,4.57 6.73,6.78 1.52,2.2 2.67,4.75 3.42,7.62 0.75,2.83 1.13,5.97 1.13,9.42 0,4.66 -0.69,8.86 -2.06,12.58 -1.38,3.75 -3.46,7.01 -6.22,9.79 -2.76,2.77 -6.03,4.85 -9.79,6.24 -3.74,1.38 -7.95,2.07 -12.63,2.07 -3.4,0 -6.59,-0.43 -9.53,-1.28 -2.97,-0.86 -5.68,-2.15 -8.13,-3.85l-0.08 -0.06c-2.43,-1.71 -4.6,-3.83 -6.5,-6.37 -1.91,-2.54 -3.55,-5.5 -4.91,-8.84 -0.2,-0.52 0.04,-1.11 0.54,-1.32zm7.73 -1.8l-6.02 3.21c1.22,2.84 2.66,5.37 4.28,7.53 1.77,2.35 3.79,4.33 6.05,5.93l0.07 0.04c2.28,1.58 4.8,2.79 7.53,3.58 2.73,0.79 5.73,1.19 8.96,1.19 4.45,0 8.43,-0.65 11.92,-1.94 3.48,-1.28 6.49,-3.2 9.04,-5.76 2.55,-2.57 4.47,-5.58 5.75,-9.05 1.28,-3.48 1.92,-7.44 1.92,-11.88 0,-3.28 -0.36,-6.25 -1.06,-8.9 -0.69,-2.64 -1.74,-4.97 -3.13,-6.99 -1.38,-2.02 -3.49,-4.13 -6.3,-6.31 -2.83,-2.21 -6.38,-4.5 -10.61,-6.83l-4.86 -2.55c-5.99,-3.15 -10.49,-6.42 -13.5,-9.83 -3.11,-3.51 -4.66,-7.18 -4.66,-10.98 0,-2.59 0.4,-4.96 1.19,-7.07 0.79,-2.13 1.99,-3.99 3.57,-5.55 1.58,-1.57 3.42,-2.75 5.54,-3.53 2.1,-0.78 4.46,-1.17 7.07,-1.17 1.87,0 3.66,0.2 5.33,0.58l0.08 0.02c1.66,0.39 3.2,0.99 4.62,1.8l0.07 0.04c1.44,0.81 2.73,1.81 3.84,2.99 0.87,0.92 1.65,1.97 2.31,3.11l5.33 -3.23c-1.02,-1.71 -2.16,-3.24 -3.42,-4.57 -1.45,-1.53 -3.08,-2.81 -4.87,-3.84 -1.79,-1.03 -3.74,-1.8 -5.83,-2.3 -2.14,-0.51 -4.44,-0.77 -6.9,-0.77 -3.77,0 -7.18,0.54 -10.21,1.63 -3.01,1.08 -5.69,2.71 -8.03,4.88 -4.65,4.31 -6.98,9.92 -6.98,16.83 0,2.79 0.4,5.36 1.2,7.71 0.8,2.35 2.01,4.51 3.61,6.47 1.64,1.98 4.13,4.15 7.46,6.48 3.35,2.34 7.56,4.85 12.62,7.51 4.01,2.15 7.36,4.17 10.01,6.08 2.66,1.92 4.65,3.72 5.9,5.4l0.03 0.04c1.3,1.71 2.27,3.66 2.91,5.81 0.63,2.14 0.95,4.48 0.95,7.02 0,3.46 -0.47,6.56 -1.4,9.29 -0.95,2.75 -2.38,5.14 -4.29,7.15 -1.9,2 -4.19,3.51 -6.84,4.51 -2.62,0.99 -5.61,1.49 -8.93,1.49 -2.63,0 -5.09,-0.36 -7.37,-1.08 -2.28,-0.72 -4.39,-1.82 -6.31,-3.27 -1.9,-1.45 -3.53,-3.2 -4.86,-5.23 -1.11,-1.71 -2.04,-3.61 -2.75,-5.72zm152.87 19.79l0 -101.42c0,-0.56 0.46,-1.03 1.03,-1.03l9.22 0c0.56,0 1.03,0.47 1.03,1.03l0 40.11 53.13 0 0 -40.11c0,-0.56 0.46,-1.03 1.02,-1.03l9.23 0c0.56,0 1.03,0.47 1.03,1.03l0 101.42c0,0.56 -0.47,1.03 -1.03,1.03l-9.23 0c-0.56,0 -1.02,-0.47 -1.02,-1.03l0 -51.31 -53.13 0 0 51.31c0,0.56 -0.47,1.03 -1.03,1.03l-9.22 0c-0.57,0 -1.03,-0.47 -1.03,-1.03zm2.05 -100.39l0 99.37 7.16 0 0 -51.31c0,-0.56 0.47,-1.03 1.03,-1.03l55.18 0c0.57,0 1.03,0.47 1.03,1.03l0 51.31 7.17 0 0 -99.37 -7.17 0 0 40.11c0,0.56 -0.46,1.03 -1.03,1.03l-55.18 0c-0.56,0 -1.03,-0.47 -1.03,-1.03l0 -40.11 -7.16 0zm179.58 100.39l0 -101.42c0,-0.56 0.47,-1.03 1.03,-1.03l9.22 0c0.56,0 1.02,0.47 1.02,1.03l0 101.42c0,0.56 -0.46,1.03 -1.02,1.03l-9.22 0c-0.56,0 -1.03,-0.47 -1.03,-1.03zm2.06 -100.39l0 99.37 7.16 0 0 -99.37 -7.16 0zm165.62 93.84c2.95,0 5.81,-0.28 8.57,-0.81 2.77,-0.54 5.48,-1.36 8.09,-2.43 2.62,-1.08 5.12,-2.42 7.48,-4 2.34,-1.57 4.56,-3.4 6.65,-5.47 2.07,-2.11 3.89,-4.35 5.45,-6.73 1.56,-2.37 2.91,-4.92 4.01,-7.61 1.1,-2.66 1.92,-5.41 2.47,-8.21 0.54,-2.8 0.81,-5.7 0.81,-8.67 0,-3 -0.27,-5.91 -0.81,-8.72 -0.54,-2.81 -1.36,-5.55 -2.44,-8.18 -1.08,-2.67 -2.42,-5.19 -3.99,-7.56 -1.57,-2.38 -3.41,-4.64 -5.5,-6.76 -2.05,-2.08 -4.25,-3.92 -6.58,-5.49 -2.33,-1.57 -4.81,-2.91 -7.44,-3.97l-0.05 -0.02c-2.6,-1.08 -5.3,-1.89 -8.07,-2.43 -2.8,-0.54 -5.68,-0.81 -8.63,-0.81 -5.86,0 -11.39,1.09 -16.58,3.26 -2.59,1.07 -5.07,2.41 -7.4,3.98l-0.06 0.04c-2.31,1.56 -4.51,3.38 -6.6,5.45 -2.09,2.15 -3.93,4.42 -5.5,6.79 -1.57,2.37 -2.9,4.88 -3.97,7.53l-0.02 0.05c-1.08,2.61 -1.89,5.32 -2.43,8.11 -0.54,2.8 -0.81,5.72 -0.81,8.74 0,3 0.28,5.9 0.81,8.7 0.54,2.81 1.36,5.54 2.44,8.18 1.07,2.67 2.4,5.19 3.97,7.57 1.57,2.38 3.41,4.64 5.5,6.78 2.07,2.09 4.28,3.94 6.6,5.52 2.31,1.58 4.76,2.91 7.33,3.99l0.05 0.02c2.55,1.06 5.21,1.86 7.97,2.38 2.77,0.53 5.68,0.79 8.69,0.79zm8.96 1.2c-2.91,0.57 -5.9,0.86 -8.96,0.86 -3.12,0 -6.15,-0.28 -9.08,-0.84 -2.9,-0.55 -5.7,-1.39 -8.37,-2.5l-0.06 -0.02c-2.68,-1.13 -5.25,-2.53 -7.69,-4.19 -2.42,-1.65 -4.72,-3.58 -6.89,-5.77 -2.18,-2.23 -4.1,-4.6 -5.75,-7.09 -1.65,-2.5 -3.05,-5.16 -4.17,-7.93 -1.13,-2.77 -1.99,-5.63 -2.55,-8.56 -0.57,-2.95 -0.86,-5.99 -0.86,-9.09 0,-3.13 0.29,-6.18 0.86,-9.13 0.56,-2.93 1.42,-5.79 2.55,-8.52 1.12,-2.77 2.52,-5.4 4.18,-7.91 1.65,-2.49 3.57,-4.87 5.73,-7.1 2.18,-2.16 4.49,-4.06 6.92,-5.71l0.05 -0.04c2.46,-1.66 5.06,-3.06 7.76,-4.18 5.45,-2.28 11.23,-3.42 17.37,-3.42 3.06,0 6.07,0.28 8.99,0.84 2.95,0.58 5.78,1.43 8.51,2.56 2.77,1.13 5.38,2.53 7.84,4.19 2.45,1.65 4.76,3.58 6.9,5.75 2.17,2.21 4.09,4.57 5.74,7.07 1.66,2.5 3.06,5.15 4.18,7.92 1.13,2.76 1.99,5.62 2.55,8.56 0.57,2.95 0.86,6 0.86,9.1 0,3.07 -0.29,6.1 -0.86,9.06 -0.57,2.93 -1.44,5.81 -2.59,8.6 -1.14,2.8 -2.55,5.45 -4.19,7.96 -1.65,2.51 -3.56,4.86 -5.7,7.05 -2.17,2.17 -4.5,4.08 -6.97,5.73 -2.48,1.66 -5.11,3.07 -7.84,4.19 -2.75,1.13 -5.58,1.99 -8.47,2.55zm46.4 -45.14c0,3.63 -0.35,7.2 -1.04,10.66 -0.69,3.46 -1.74,6.84 -3.13,10.13 -2.77,6.56 -6.78,12.42 -12,17.56 -2.66,2.58 -5.49,4.85 -8.5,6.83 -3.01,1.96 -6.19,3.64 -9.53,5l-0.05 0.02c-3.32,1.33 -6.74,2.35 -10.25,3.02 -3.54,0.68 -7.17,1.02 -10.87,1.02 -3.7,0 -7.33,-0.34 -10.86,-1.02 -3.51,-0.67 -6.95,-1.69 -10.28,-3.04l-0.05 -0.02c-3.3,-1.35 -6.45,-3.02 -9.42,-4.98 -2.98,-1.97 -5.81,-4.25 -8.43,-6.82 -2.64,-2.62 -4.97,-5.4 -6.97,-8.33 -2,-2.93 -3.7,-6.04 -5.08,-9.29 -1.37,-3.27 -2.41,-6.63 -3.09,-10.09 -0.69,-3.45 -1.04,-7.01 -1.04,-10.65 0,-3.68 0.34,-7.28 1.04,-10.78 0.68,-3.49 1.72,-6.88 3.09,-10.17l0.04 -0.07c1.38,-3.25 3.07,-6.35 5.05,-9.27 2,-2.94 4.33,-5.73 6.97,-8.34 2.58,-2.55 5.36,-4.81 8.31,-6.75 2.97,-1.96 6.13,-3.6 9.42,-4.9 3.29,-1.31 6.74,-2.29 10.3,-2.95 3.56,-0.66 7.24,-0.99 11,-0.99 3.78,0 7.48,0.33 11.06,1 3.57,0.66 7.04,1.66 10.37,3 3.32,1.32 6.47,2.95 9.44,4.88 2.96,1.93 5.74,4.17 8.33,6.72 2.64,2.61 4.96,5.4 6.96,8.34 2,2.93 3.7,6.06 5.09,9.33 1.37,3.29 2.41,6.69 3.09,10.17 0.69,3.5 1.03,7.1 1.03,10.78zm-3.06 10.27c0.66,-3.32 1,-6.75 1,-10.27 0,-3.57 -0.34,-7.04 -0.99,-10.38 -0.65,-3.35 -1.65,-6.62 -2.97,-9.78 -1.31,-3.13 -2.95,-6.13 -4.89,-8.97 -1.93,-2.84 -4.16,-5.52 -6.7,-8.04 -2.49,-2.45 -5.17,-4.61 -8.01,-6.46 -2.84,-1.85 -5.88,-3.42 -9.08,-4.69 -3.22,-1.29 -6.55,-2.26 -9.98,-2.89 -3.42,-0.64 -6.99,-0.95 -10.69,-0.95 -3.68,0 -7.23,0.32 -10.63,0.95 -3.4,0.63 -6.71,1.58 -9.92,2.86 -3.22,1.27 -6.25,2.84 -9.06,4.69 -2.82,1.85 -5.49,4.04 -7.99,6.5 -2.54,2.51 -4.78,5.2 -6.72,8.04 -1.91,2.81 -3.54,5.79 -4.87,8.91l-0.02 0.06c-1.31,3.16 -2.32,6.43 -2.97,9.78 -0.66,3.34 -0.99,6.81 -0.99,10.38 0,3.52 0.34,6.94 0.99,10.25 0.65,3.32 1.66,6.56 2.97,9.69 1.33,3.12 2.96,6.11 4.89,8.93 1.94,2.83 4.17,5.5 6.71,8.02 2.54,2.49 5.25,4.68 8.12,6.58 2.84,1.87 5.88,3.48 9.08,4.79 3.24,1.3 6.54,2.29 9.93,2.94 3.38,0.65 6.87,0.97 10.47,0.97 3.6,0 7.1,-0.33 10.48,-0.97 3.37,-0.65 6.67,-1.62 9.86,-2.91l0.05 -0.02c3.22,-1.31 6.29,-2.93 9.17,-4.81 2.89,-1.9 5.63,-4.09 8.19,-6.58 5.03,-4.95 8.88,-10.58 11.54,-16.89 1.33,-3.15 2.33,-6.4 3,-9.73zm104.22 40.23l0 -105.68c0,-0.56 0.46,-1.02 1.03,-1.02 0.34,0 0.64,0.16 0.82,0.42l69.93 82.64 0 -77.78c0,-0.56 0.46,-1.03 1.03,-1.03l8.65 0c0.56,0 1.03,0.47 1.03,1.03l0 104.4c0,0.56 -0.47,1.03 -1.03,1.03 -0.34,0 -0.64,-0.17 -0.83,-0.42l-69.92 -82.82 0 79.23c0,0.56 -0.47,1.03 -1.03,1.03l-8.65 0c-0.57,0 -1.03,-0.47 -1.03,-1.03zm2.05 -102.88l0 101.85 6.6 0 0 -81.01c0,-0.29 0.13,-0.58 0.36,-0.78 0.43,-0.37 1.08,-0.31 1.44,0.12l69.97 82.87 0 -100.57 -6.59 0 0 79.55c-0,0.29 -0.13,0.58 -0.36,0.78 -0.43,0.36 -1.08,0.31 -1.44,-0.12l-69.97 -82.7z"/>
  <path class="fil0" d="M917.87 425.53l0 -101.43 50.22 0 0 8.65 -41 0 0 31.77 39.48 0 0 8.66 -39.48 0 0 52.34 -9.22 0zm155.56 -42.27l35.32 0 -17.31 -44.09 -18.02 44.09zm-25.94 42.27l44.57 -105.4 42.67 105.4 -10.05 0 -12.96 -34.33 -41.42 0 -13.43 34.33 -9.38 0zm173.6 -17.05l7.95 -4.23c1.47,4.99 4.02,8.87 7.64,11.61 3.64,2.77 7.99,4.14 13.08,4.14 6.4,0 11.42,-1.89 15.01,-5.68 3.61,-3.81 5.41,-9.03 5.41,-15.75 0,-4.89 -1.2,-8.96 -3.64,-12.2 -2.41,-3.24 -7.64,-6.97 -15.6,-11.23 -10.21,-5.39 -17,-10.14 -20.38,-14.25 -3.38,-4.12 -5.06,-9.06 -5.06,-14.83 0,-7.21 2.44,-13.07 7.31,-17.59 4.87,-4.52 11.18,-6.79 18.94,-6.79 5.06,0 9.48,1.06 13.24,3.22 3.76,2.15 6.81,5.37 9.17,9.65l-7.09 4.3c-1.47,-2.91 -3.57,-5.13 -6.27,-6.64 -2.7,-1.54 -5.89,-2.3 -9.6,-2.3 -4.99,0 -8.93,1.47 -11.89,4.4 -2.95,2.93 -4.44,6.91 -4.44,11.89 0,7.1 5.86,13.74 17.59,19.88 2.12,1.09 3.73,1.96 4.85,2.55 8.63,4.75 14.4,9.24 17.31,13.48 2.91,4.23 4.37,9.71 4.37,16.45 0,9.1 -2.65,16.31 -7.97,21.66 -5.32,5.32 -12.55,7.99 -21.7,7.99 -6.65,0 -12.34,-1.65 -17.07,-4.94 -4.75,-3.31 -8.47,-8.25 -11.14,-14.8zm161.24 17.05l0 -101.43 9.22 0 0 41.14 55.19 0 0 -41.14 9.22 0 0 101.43 -9.22 0 0 -52.34 -55.19 0 0 52.34 -9.22 0zm181.64 0l0 -101.43 9.22 0 0 101.43 -9.22 0zm166.65 -5.53c6,0 11.68,-1.11 17.05,-3.33 5.34,-2.2 10.19,-5.44 14.47,-9.7 4.21,-4.3 7.42,-9.17 9.67,-14.66 2.25,-5.46 3.36,-11.23 3.36,-17.28 0,-6.1 -1.11,-11.87 -3.33,-17.28 -2.2,-5.44 -5.44,-10.31 -9.7,-14.66 -4.21,-4.26 -8.98,-7.5 -14.37,-9.69 -5.37,-2.22 -11.09,-3.33 -17.14,-3.33 -6,0 -11.65,1.11 -16.98,3.33 -5.29,2.2 -10.12,5.44 -14.4,9.69 -4.26,4.4 -7.5,9.27 -9.69,14.66 -2.22,5.37 -3.34,11.14 -3.34,17.28 0,6.1 1.11,11.87 3.34,17.28 2.2,5.44 5.44,10.31 9.69,14.66 4.26,4.3 9.01,7.54 14.25,9.74 5.27,2.2 10.97,3.29 17.12,3.29zm54.33 -44.97c0,7.17 -1.37,13.95 -4.09,20.4 -2.71,6.43 -6.64,12.18 -11.77,17.21 -5.23,5.08 -11.11,8.94 -17.69,11.61 -6.54,2.64 -13.48,3.97 -20.78,3.97 -7.3,0 -14.21,-1.33 -20.76,-3.97 -6.53,-2.67 -12.39,-6.53 -17.57,-11.61 -5.18,-5.13 -9.1,-10.9 -11.82,-17.28 -2.7,-6.41 -4.04,-13.17 -4.04,-20.33 0,-7.26 1.35,-14.09 4.04,-20.55 2.72,-6.43 6.64,-12.22 11.82,-17.35 5.08,-5.01 10.88,-8.84 17.4,-11.42 6.5,-2.58 13.48,-3.88 20.92,-3.88 7.5,0 14.49,1.3 21.04,3.93 6.53,2.6 12.34,6.38 17.43,11.37 5.18,5.13 9.1,10.92 11.82,17.35 2.69,6.45 4.04,13.29 4.04,20.55zm103.21 50.5l0 -105.68 71.78 84.83 0 -80.58 8.66 0 0 104.4 -71.78 -85.02 0 82.04 -8.66 0z"/>
  <path class="fil0" d="M961.1 270.24l-45.15 0 0 -13.3 5.18 -2.08c0.99,-0.56 1.99,-1.24 2.97,-2.02 1.08,-0.86 2.09,-1.81 2.99,-2.82l0.22 -0.25c2.05,-2.05 3.72,-4.56 4.98,-7.51 28.38,-61.32 59.34,-122.63 88.82,-183.56l11.4 0 83.23 183.43c1.76,3.25 3.73,5.99 5.88,8.2 2.09,2.14 4.38,3.79 6.83,4.91l4.07 2.04 0 12.96 -55.04 0 0 -13.57 4.71 -1.56 0.99 -0.65c0.42,-0.29 0.88,-0.69 1.38,-1.19l0.21 -0.19c0.59,-0.74 0.93,-1.45 0.99,-2.11 0.08,-0.81 -0.15,-1.76 -0.69,-2.83l-13.68 -29.81 -94.03 0c-5.09,0 -8.69,2.27 -10.78,6.8 -3.53,5.99 -6.9,13.76 -10.09,20.2 -0.61,1.49 -0.81,2.77 -0.58,3.78 0.24,1.02 0.96,2.04 2.16,3.02l0.11 0.09c0.73,0.63 1.49,1.21 2.25,1.71 0.79,0.53 1.58,0.99 2.37,1.38l3.93 1.93 0 12.99 -5.63 0zm-27.04 -11.27l14.94 0c-2.07,-2.19 -3.41,-4.65 -4.03,-7.35 -0.78,-3.45 -0.36,-7.1 1.28,-10.91 2.95,-6.7 6.84,-13.69 10.14,-20.29 2.86,-6.24 7.16,-10.3 12.87,-12.16l-6.42 0 61.31 -122.17 53.91 120.97 0.51 0 16.62 36.24c1.45,2.98 2.03,5.92 1.74,8.79 -0.25,2.46 -1.11,4.75 -2.56,6.89l20.01 0 -0.82 -0.81c-2.94,-3.02 -5.57,-6.71 -7.9,-11.06l-79 -174.07 -84.07 173.73c-1.82,4.23 -4.28,7.89 -7.35,10.97l-1.19 1.25zm89.49 -146.67l-42.5 84.68 80.24 0 -37.74 -84.68zm243.84 157.93l-47.08 0 0 -13.58 4.73 -1.56c2.17,-1.05 3.79,-2.44 4.82,-4.15 1.12,-1.87 1.69,-4.31 1.69,-7.27l0 -54.05 -69.9 -100.06c-1.39,-2.03 -2.97,-3.77 -4.73,-5.22 -1.76,-1.45 -3.77,-2.66 -6,-3.62l-4.21 -2.08 0 -12.99 52.33 0 0 13.55 -4.57 1.53c-0.2,0.61 -0.36,1.1 -0.47,1.73l57.14 82.41 54.96 -78.87c0.19,-0.32 0.3,-0.63 0.34,-0.91 0.05,-0.4 0.01,-0.84 -0.12,-1.33 -0.09,-0.39 -0.25,-0.69 -0.43,-0.92 -0.18,-0.21 -0.47,-0.41 -0.85,-0.58 -2.5,-1.42 -5.4,-2.72 -8.01,-4.03l0 -12.57 50.77 0 0 13.54 -4.82 1.63c-3.27,1.44 -6.27,3.27 -8.97,5.47 -2.75,2.27 -5.22,4.93 -7.36,7.96l-64.84 93.08 0 56.34c0,2.96 0.57,5.39 1.7,7.26 1.06,1.74 2.7,3.15 4.93,4.21l4.6 1.53 0 13.54 -5.63 0zm-29.47 -11.27l17.49 0c-0.56,-0.7 -1.08,-1.44 -1.55,-2.21 -2.22,-3.67 -3.33,-8.04 -3.33,-13.07l0 -58.1 0.4 -1.27 -65.46 -94.46c-1.32,-1.6 -2.17,-3.38 -2.53,-5.32 -0.34,-1.85 -0.22,-3.77 0.38,-5.72 0.15,-0.65 0.35,-1.28 0.58,-1.88l-18.41 0c2.03,1.87 3.85,3.97 5.45,6.3l70.85 101.46 1.03 3.21 0 55.78c0,5.03 -1.11,9.4 -3.33,13.07 -0.49,0.77 -1.01,1.51 -1.56,2.22zm79.63 -172.3l-0.25 1.3 0.09 -0.12c2.78,-3.94 5.94,-7.35 9.48,-10.25l0.85 -0.67 -12.27 0c0.76,1.19 1.34,2.52 1.72,3.98 0.52,1.96 0.65,3.88 0.38,5.76zm351.43 183.57l-49.79 0 0 -13.55 4.78 -1.59c2.61,-1.1 4.54,-2.57 5.77,-4.39 1.22,-1.82 1.83,-4.16 1.83,-7.02l0 -125.63 -86.93 148.77 -86.19 -147.29 0 124.14c0,1.86 0.96,3.8 2.87,5.79 1.22,1.27 2.52,2.38 3.92,3.33 1.28,0.87 2.63,1.61 4.05,2.2l5.04 1.67 0 13.58 -54.27 0 0 -13.58 4.97 -1.63c1.44,-0.6 2.8,-1.34 4.06,-2.22 1.35,-0.93 2.59,-2.01 3.7,-3.23 0.98,-1.09 1.71,-2.16 2.17,-3.22 0.39,-0.88 0.58,-1.78 0.58,-2.68l0 -151.46c0,-0.92 -0.2,-1.82 -0.58,-2.69 -0.46,-1.06 -1.19,-2.13 -2.17,-3.2 -1.16,-1.24 -2.39,-2.33 -3.71,-3.24 -1.24,-0.86 -2.57,-1.59 -3.99,-2.18l-5.05 -1.67 0 -13.58 42.18 0 86.66 148.3 84.61 -143.95 2.33 -2.18 3.11 -1.55 2.51 -0.62 33.13 0 0 13.55 -4.84 1.62c-2.6,0.99 -4.51,2.39 -5.72,4.17 -1.22,1.82 -1.84,4.22 -1.84,7.21l0 151.46c0,2.86 0.62,5.2 1.84,7.02 1.2,1.77 3.09,3.22 5.63,4.33l4.93 1.63 0 13.57 -5.63 0zm-31.42 -11.27l18.68 0c-0.54,-0.63 -1.04,-1.28 -1.51,-1.97 -2.52,-3.74 -3.78,-8.18 -3.78,-13.32l0 -151.46c0,-5.28 1.27,-9.78 3.78,-13.51l1.34 -1.78 -13.32 0 -0.38 0.19 -93.51 159.08c-31,-53.1 -62.1,-106.15 -93.07,-159.27l-16.49 0 1.77 1.79c1.85,2.05 3.26,4.15 4.21,6.31 1.03,2.35 1.54,4.74 1.54,7.19l0 151.46c0,2.46 -0.51,4.87 -1.55,7.22 -0.95,2.16 -2.35,4.26 -4.21,6.27l-1.8 1.8 15.7 0 -1.76 -1.71c-4.02,-4.19 -6.04,-8.72 -6.04,-13.58l0 -144.88 10.48 -2.84 86.95 148.59 87.72 -150.14 10.5 2.84 0 146.42c0,5.14 -1.26,9.58 -3.77,13.32 -0.47,0.68 -0.97,1.34 -1.51,1.97zm154.48 11.27l-45.14 0 0 -13.3 5.18 -2.07c1,-0.57 1.98,-1.24 2.93,-2 1.07,-0.86 2.07,-1.81 3.02,-2.87l0.2 -0.22c2.08,-2.08 3.75,-4.59 5.01,-7.51 28.38,-61.32 59.33,-122.63 88.8,-183.56l11.4 0 83.23 183.43c1.77,3.25 3.73,5.99 5.89,8.2 2.09,2.14 4.37,3.79 6.82,4.91 1.35,0.59 2.74,1.35 4.07,2.01l0 12.98 -55.04 0 0 -13.58 4.71 -1.56 1.04 -0.68c0.44,-0.32 0.89,-0.71 1.33,-1.15l0.26 -0.25c0.56,-0.72 0.88,-1.41 0.95,-2.07 0.08,-0.81 -0.15,-1.75 -0.69,-2.83l-13.68 -29.81 -94.03 0c-5.08,0 -8.68,2.27 -10.77,6.8 -3.51,5.95 -6.81,13.6 -10.02,19.98 -0.68,1.59 -0.9,2.94 -0.66,4 0.24,1.02 0.96,2.03 2.16,3.02l0.11 0.09c0.73,0.63 1.49,1.21 2.25,1.71 0.79,0.53 1.6,1 2.39,1.4l3.89 1.95 0 12.96 -5.63 0zm-27.02 -11.27l14.92 0c-2.06,-2.19 -3.41,-4.65 -4.03,-7.35 -0.78,-3.47 -0.35,-7.1 1.28,-10.91 3.45,-6.71 6.78,-13.53 10.16,-20.29 2.86,-6.24 7.16,-10.29 12.87,-12.16l-6.42 0 61.31 -122.17 53.92 120.97 0.5 0 16.62 36.24c1.46,2.98 2.04,5.93 1.74,8.81 -0.25,2.43 -1.11,4.73 -2.56,6.87l20.01 0 -0.82 -0.81c-2.94,-3.01 -5.57,-6.7 -7.9,-11.06l-79.02 -174.07 -84.05 173.73c-1.84,4.26 -4.3,7.93 -7.35,10.98l-1.18 1.24zm89.47 -146.67l-42.5 84.69 80.24 0 -37.75 -84.69z"/>
  <path class="fil0" d="M961.1 264.6l-39.51 0 0 -3.87 1.94 -0.77c2.84,-1.55 5.42,-3.61 7.75,-6.2 2.58,-2.59 4.65,-5.68 6.2,-9.3l87.16 -180.13 4.26 0 81.74 180.13c4.13,7.75 9.29,13.04 15.49,15.88l0.77 0.39 0 3.87 -43.77 0 0 -3.87 1.16 -0.39c1.55,-0.77 2.97,-1.81 4.26,-3.1 0.26,-0.26 0.39,-0.39 0.39,-0.39 2.84,-3.36 3.23,-7.1 1.16,-11.23l-15.11 -32.93 -97.62 0c-7.49,0 -12.78,3.36 -15.88,10.07l-7.75 15.49c-0.77,1.55 -1.55,3.1 -2.32,4.65 -2.32,5.42 -1.29,9.94 3.1,13.56 1.81,1.55 3.74,2.84 5.81,3.87l0.77 0.39 0 3.87zm62.75 -165.41l-51.91 103.43 98 0 -46.1 -103.43zm243.54 165.41l-41.45 0 0 -3.87 1.16 -0.39c6.71,-3.1 10.07,-8.65 10.07,-16.66l0 -55.78 -70.89 -101.49c-3.36,-4.91 -7.75,-8.52 -13.17,-10.84l-0.77 -0.39 0 -3.88 41.06 0 0 3.88 -1.16 0.39c-1.81,0.77 -2.97,2.32 -3.49,4.65 -0.77,2.32 -0.39,4.39 1.16,6.2l61.21 88.32 59.66 -85.61c1.29,-2.07 1.61,-4.32 0.97,-6.78 -0.65,-2.45 -2.13,-4.2 -4.45,-5.23l-4.65 -2.32 0 -3.49 39.51 0 0 3.88 -1.16 0.39c-7.75,3.36 -14.07,8.52 -18.98,15.49l-65.86 94.52 0 58.11c0,8.01 3.36,13.56 10.07,16.66l1.16 0.39 0 3.87zm401.59 0l-44.16 0 0 -3.87 1.16 -0.39c7.49,-3.1 11.23,-8.65 11.23,-16.66l0 -146.43 -92.58 158.44 -91.8 -156.89 0 144.88c0,3.36 1.48,6.58 4.45,9.69 2.97,3.1 6.39,5.42 10.26,6.97l1.16 0.39 0 3.87 -43 0 0 -3.87 1.16 -0.39c3.87,-1.55 7.23,-3.87 10.07,-6.97 2.84,-3.1 4.26,-6.33 4.26,-9.69l0 -151.46c0,-3.36 -1.42,-6.59 -4.26,-9.69 -2.84,-3.1 -6.2,-5.42 -10.07,-6.97l-1.16 -0.39 0 -3.88 33.31 0 2.71 4.65 87.16 149.14 89.48 -152.24 3.1 -1.55 27.5 0 0 3.88 -1.16 0.39c-7.49,2.84 -11.23,8.39 -11.23,16.66l0 151.46c0,8.01 3.74,13.56 11.23,16.66l1.16 0.39 0 3.87zm123.07 0l-39.51 0 0 -3.87 1.94 -0.77c2.84,-1.55 5.42,-3.61 7.75,-6.2 2.58,-2.59 4.65,-5.68 6.2,-9.3l87.16 -180.13 4.26 0 81.74 180.13c4.13,7.75 9.29,13.04 15.49,15.88l0.77 0.39 0 3.87 -43.77 0 0 -3.87 1.16 -0.39c1.55,-0.77 2.97,-1.81 4.26,-3.1 0.26,-0.26 0.39,-0.39 0.39,-0.39 2.84,-3.36 3.23,-7.1 1.16,-11.23l-15.11 -32.93 -97.62 0c-7.49,0 -12.78,3.36 -15.88,10.07l-7.75 15.49c-0.77,1.55 -1.55,3.1 -2.32,4.65 -2.32,5.42 -1.29,9.94 3.1,13.56 1.81,1.55 3.74,2.84 5.81,3.87l0.77 0.39 0 3.87zm62.75 -165.41l-51.91 103.43 98 0 -46.1 -103.43z"/>
  <path class="fil0" d="M89.51 447.56l-86.68 0 0 -8.5 4.25 -1.71c6.23,-3.4 11.9,-7.93 16.99,-13.6 5.67,-5.66 10.2,-12.46 13.61,-20.4l106.08 -219.23 19.5 27.92 -49.95 99.53 77.92 0 0 22.09 -66.02 0c-16.39,0 -27.61,7.62 -34.85,22.1l-16.99 33.99c-1.71,3.4 -3.4,6.8 -5.1,10.2 -5.1,11.9 -2.84,21.81 6.8,29.75 3.96,3.4 8.21,6.23 12.74,8.5l1.69 0.85 0 8.5zm82.92 -322.11l56.47 -117.27 9.35 0 65.51 144.36 -28.24 40.53 -48.32 -108.41 -34.88 69.5 -19.89 -28.71zm152.05 68.12l93.09 209.79c7.81,17.6 20.61,28.17 33.99,34.85l1.7 0.85 0 8.5 -96.04 0 0 -8.5 2.55 -0.85c3.4,-1.7 6.51,-3.97 9.35,-6.8 0.56,-0.56 0.85,-0.84 0.85,-0.84 6.23,-7.36 7.08,-15.58 2.54,-24.65l-33.15 -72.24 -90.14 0 0 -22.09 79.1 0 -32.21 -77.31 28.36 -40.7z"/>
  <path class="fil0" d="M273.89 443.8l-90.93 0 0 -8.5 2.55 -0.85c14.73,-6.81 22.09,-18.98 22.09,-36.54l0 -122.38 -155.53 -222.68c-7.36,-10.76 -16.99,-18.69 -28.89,-23.8l-1.71 -0.84 0 -8.51 90.09 0 0 8.51 -2.55 0.84c-3.97,1.7 -6.51,5.1 -7.65,10.2 -1.7,5.1 -0.85,9.63 2.55,13.59l134.29 193.78 130.88 -187.83c2.83,-4.53 3.54,-9.49 2.12,-14.87 -1.42,-5.39 -4.68,-9.21 -9.77,-11.47l-10.2 -5.1 0 -7.66 86.68 0 0 8.51 -2.55 0.84c-17,7.37 -30.88,18.7 -41.64,34l-144.49 207.37 0 127.48c0,17.56 7.37,29.74 22.1,36.54l2.55 0.85 0 8.5z"/>
  <path class="fil0" d="M454.83 392.62l-26.1 0 -43.58 -98.23 0 -187.88 42.48 -56.63 0 296.84c0,17.56 8.23,29.74 24.66,36.53l2.55 0.85 0 8.5zm-79.45 0l-17.44 0 0 -8.5 2.55 -0.85c3.14,-1.3 5.99,-2.8 8.53,-4.49l6.36 13.85z"/>
  <path class="fil0" d="M-0.01 392.62l27.84 0 41.85 -86.48 0 -199.62 -42.49 -56.64 0 296.84c0,17.56 -8.21,29.74 -24.65,36.54l-2.55 0.85 0 8.5zm61.43 0l35.46 0 0 -8.5 -2.55 -0.85c-9.02,-3.74 -15.57,-9.09 -19.64,-16.07 -1.43,2.1 -2.75,4.37 -3.97,6.81l-9.31 18.61z"/>
  <line class="fil1 str0" x1="688.1" y1="3.31" x2="688.1" y2= "478.73" />
 </g>
</svg>
