<?xml version="1.0" encoding="UTF-8"?>
<!DOCTYPE svg PUBLIC "-//W3C//DTD SVG 1.1//EN" "http://www.w3.org/Graphics/SVG/1.1/DTD/svg11.dtd">
<!-- Creator: CorelDRAW 2021 (64-Bit) -->
<svg xmlns="http://www.w3.org/2000/svg" xml:space="preserve" width="1.022in" height="0.724071in" version="1.1" style="shape-rendering:geometricPrecision; text-rendering:geometricPrecision; image-rendering:optimizeQuality; fill-rule:evenodd; clip-rule:evenodd"
viewBox="0 0 309.92 219.57"
 xmlns:xlink="http://www.w3.org/1999/xlink"
 xmlns:xodm="http://www.corel.com/coreldraw/odm/2003">
 <defs>
  <style type="text/css">
   <![CDATA[
    .str1 {stroke:white;stroke-width:3.33;stroke-linecap:round;stroke-miterlimit:2.61313}
    .str0 {stroke:white;stroke-width:0.4;stroke-linecap:round;stroke-linejoin:round;stroke-miterlimit:11.4737}
    .fil0 {fill:none;fill-rule:nonzero}
    .fil1 {fill:black;fill-rule:nonzero}
   ]]>
  </style>
 </defs>
 <g id="Layer_x0020_1">
  <metadata id="CorelCorpID_0Corel-Layer"/>
  <g id="_1407224766240">
   <g>
    <path class="fil0 str0" d="M52.56 218.79l0 -19.77 9.79 0 0 1.69 -7.99 0 0 6.19 7.7 0 0 1.69 -7.7 0 0 10.2 -1.8 0zm30.32 -8.24l6.88 0 -3.37 -8.59 -3.51 8.59zm-5.05 8.24l8.69 -20.54 8.32 20.54 -1.96 0 -2.53 -6.69 -8.07 0 -2.62 6.69 -1.83 0zm33.84 -3.32l1.55 -0.82c0.29,0.97 0.78,1.73 1.49,2.26 0.71,0.54 1.56,0.81 2.55,0.81 1.25,0 2.23,-0.37 2.93,-1.11 0.71,-0.74 1.06,-1.76 1.06,-3.07 0,-0.95 -0.23,-1.75 -0.71,-2.38 -0.47,-0.63 -1.49,-1.36 -3.04,-2.19 -1.99,-1.05 -3.31,-1.98 -3.97,-2.78 -0.66,-0.8 -0.99,-1.76 -0.99,-2.89 0,-1.41 0.48,-2.55 1.42,-3.43 0.95,-0.88 2.18,-1.32 3.69,-1.32 0.99,0 1.85,0.21 2.58,0.63 0.73,0.42 1.33,1.05 1.79,1.88l-1.38 0.84c-0.29,-0.57 -0.7,-1 -1.22,-1.3 -0.53,-0.3 -1.15,-0.45 -1.87,-0.45 -0.97,0 -1.74,0.29 -2.32,0.86 -0.58,0.57 -0.87,1.35 -0.87,2.32 0,1.38 1.14,2.68 3.43,3.88 0.42,0.21 0.73,0.38 0.95,0.5 1.68,0.93 2.81,1.8 3.37,2.63 0.57,0.82 0.85,1.89 0.85,3.21 0,1.78 -0.52,3.18 -1.55,4.22 -1.04,1.04 -2.45,1.56 -4.23,1.56 -1.3,0 -2.41,-0.32 -3.33,-0.96 -0.93,-0.64 -1.65,-1.61 -2.17,-2.88zm31.43 3.32l0 -19.77 1.8 0 0 8.02 10.76 0 0 -8.02 1.8 0 0 19.77 -1.8 0 0 -10.2 -10.76 0 0 10.2 -1.8 0zm35.4 0l0 -19.77 1.8 0 0 19.77 -1.8 0zm32.48 -1.08c1.17,0 2.28,-0.22 3.32,-0.65 1.04,-0.43 1.99,-1.06 2.82,-1.89 0.82,-0.84 1.45,-1.79 1.89,-2.86 0.44,-1.06 0.65,-2.19 0.65,-3.37 0,-1.19 -0.22,-2.31 -0.65,-3.37 -0.43,-1.06 -1.06,-2.01 -1.89,-2.86 -0.82,-0.83 -1.75,-1.46 -2.8,-1.89 -1.05,-0.43 -2.16,-0.65 -3.34,-0.65 -1.17,0 -2.27,0.22 -3.31,0.65 -1.03,0.43 -1.97,1.06 -2.81,1.89 -0.83,0.86 -1.46,1.81 -1.89,2.86 -0.43,1.05 -0.65,2.17 -0.65,3.37 0,1.19 0.22,2.31 0.65,3.37 0.43,1.06 1.06,2.01 1.89,2.86 0.83,0.84 1.76,1.47 2.78,1.9 1.03,0.43 2.14,0.64 3.34,0.64zm10.59 -8.77c0,1.4 -0.27,2.72 -0.8,3.98 -0.53,1.25 -1.3,2.37 -2.29,3.35 -1.02,0.99 -2.17,1.74 -3.45,2.26 -1.28,0.52 -2.63,0.77 -4.05,0.77 -1.42,0 -2.77,-0.26 -4.05,-0.77 -1.27,-0.52 -2.42,-1.27 -3.42,-2.26 -1.01,-1 -1.77,-2.12 -2.3,-3.37 -0.53,-1.25 -0.79,-2.57 -0.79,-3.96 0,-1.41 0.26,-2.75 0.79,-4 0.53,-1.25 1.3,-2.38 2.3,-3.38 0.99,-0.98 2.12,-1.72 3.39,-2.23 1.27,-0.5 2.63,-0.76 4.08,-0.76 1.46,0 2.82,0.25 4.1,0.77 1.27,0.51 2.41,1.24 3.4,2.22 1.01,1 1.77,2.13 2.3,3.38 0.53,1.26 0.79,2.59 0.79,4zm20.12 9.84l0 -20.6 13.99 16.54 0 -15.71 1.69 0 0 20.35 -13.99 -16.57 0 15.99 -1.69 0z"/>
    <path id="_1" class="fil1" d="M52.56 218.79l0 -19.77 9.79 0 0 1.69 -7.99 0 0 6.19 7.7 0 0 1.69 -7.7 0 0 10.2 -1.8 0zm30.32 -8.24l6.88 0 -3.37 -8.59 -3.51 8.59zm-5.05 8.24l8.69 -20.54 8.32 20.54 -1.96 0 -2.53 -6.69 -8.07 0 -2.62 6.69 -1.83 0zm33.84 -3.32l1.55 -0.82c0.29,0.97 0.78,1.73 1.49,2.26 0.71,0.54 1.56,0.81 2.55,0.81 1.25,0 2.23,-0.37 2.93,-1.11 0.71,-0.74 1.06,-1.76 1.06,-3.07 0,-0.95 -0.23,-1.75 -0.71,-2.38 -0.47,-0.63 -1.49,-1.36 -3.04,-2.19 -1.99,-1.05 -3.31,-1.98 -3.97,-2.78 -0.66,-0.8 -0.99,-1.76 -0.99,-2.89 0,-1.41 0.48,-2.55 1.42,-3.43 0.95,-0.88 2.18,-1.32 3.69,-1.32 0.99,0 1.85,0.21 2.58,0.63 0.73,0.42 1.33,1.05 1.79,1.88l-1.38 0.84c-0.29,-0.57 -0.7,-1 -1.22,-1.3 -0.53,-0.3 -1.15,-0.45 -1.87,-0.45 -0.97,0 -1.74,0.29 -2.32,0.86 -0.58,0.57 -0.87,1.35 -0.87,2.32 0,1.38 1.14,2.68 3.43,3.88 0.42,0.21 0.73,0.38 0.95,0.5 1.68,0.93 2.81,1.8 3.37,2.63 0.57,0.82 0.85,1.89 0.85,3.21 0,1.78 -0.52,3.18 -1.55,4.22 -1.04,1.04 -2.45,1.56 -4.23,1.56 -1.3,0 -2.41,-0.32 -3.33,-0.96 -0.93,-0.64 -1.65,-1.61 -2.17,-2.88zm31.43 3.32l0 -19.77 1.8 0 0 8.02 10.76 0 0 -8.02 1.8 0 0 19.77 -1.8 0 0 -10.2 -10.76 0 0 10.2 -1.8 0zm35.4 0l0 -19.77 1.8 0 0 19.77 -1.8 0zm32.48 -1.08c1.17,0 2.28,-0.22 3.32,-0.65 1.04,-0.43 1.99,-1.06 2.82,-1.89 0.82,-0.84 1.45,-1.79 1.89,-2.86 0.44,-1.06 0.65,-2.19 0.65,-3.37 0,-1.19 -0.22,-2.31 -0.65,-3.37 -0.43,-1.06 -1.06,-2.01 -1.89,-2.86 -0.82,-0.83 -1.75,-1.46 -2.8,-1.89 -1.05,-0.43 -2.16,-0.65 -3.34,-0.65 -1.17,0 -2.27,0.22 -3.31,0.65 -1.03,0.43 -1.97,1.06 -2.81,1.89 -0.83,0.86 -1.46,1.81 -1.89,2.86 -0.43,1.05 -0.65,2.17 -0.65,3.37 0,1.19 0.22,2.31 0.65,3.37 0.43,1.06 1.06,2.01 1.89,2.86 0.83,0.84 1.76,1.47 2.78,1.9 1.03,0.43 2.14,0.64 3.34,0.64zm10.59 -8.77c0,1.4 -0.27,2.72 -0.8,3.98 -0.53,1.25 -1.3,2.37 -2.29,3.35 -1.02,0.99 -2.17,1.74 -3.45,2.26 -1.28,0.52 -2.63,0.77 -4.05,0.77 -1.42,0 -2.77,-0.26 -4.05,-0.77 -1.27,-0.52 -2.42,-1.27 -3.42,-2.26 -1.01,-1 -1.77,-2.12 -2.3,-3.37 -0.53,-1.25 -0.79,-2.57 -0.79,-3.96 0,-1.41 0.26,-2.75 0.79,-4 0.53,-1.25 1.3,-2.38 2.3,-3.38 0.99,-0.98 2.12,-1.72 3.39,-2.23 1.27,-0.5 2.63,-0.76 4.08,-0.76 1.46,0 2.82,0.25 4.1,0.77 1.27,0.51 2.41,1.24 3.4,2.22 1.01,1 1.77,2.13 2.3,3.38 0.53,1.26 0.79,2.59 0.79,4zm20.12 9.84l0 -20.6 13.99 16.54 0 -15.71 1.69 0 0 20.35 -13.99 -16.57 0 15.99 -1.69 0z"/>
   </g>
   <g>
    <path class="fil0 str1" d="M13.36 177.54l-11.69 0 0 -1.15 0.57 -0.23c0.84,-0.46 1.6,-1.07 2.29,-1.83 0.76,-0.76 1.38,-1.68 1.83,-2.75l25.79 -53.29 1.26 0 24.18 53.29c1.22,2.29 2.75,3.86 4.58,4.7l0.23 0.11 0 1.15 -12.95 0 0 -1.15 0.34 -0.11c0.46,-0.23 0.88,-0.53 1.26,-0.92 0.08,-0.08 0.11,-0.11 0.11,-0.11 0.84,-0.99 0.96,-2.1 0.34,-3.32l-4.47 -9.74 -28.88 0c-2.22,0 -3.78,0.99 -4.7,2.98l-2.29 4.58c-0.23,0.46 -0.46,0.92 -0.69,1.38 -0.69,1.6 -0.38,2.94 0.92,4.01 0.53,0.46 1.11,0.84 1.72,1.15l0.23 0.11 0 1.15zm18.57 -48.94l-15.36 30.6 29 0 -13.64 -30.6zm72.05 48.94l-12.26 0 0 -1.15 0.34 -0.11c1.99,-0.92 2.98,-2.56 2.98,-4.93l0 -16.5 -20.97 -30.03c-0.99,-1.45 -2.29,-2.52 -3.9,-3.21l-0.23 -0.11 0 -1.15 12.15 0 0 1.15 -0.34 0.11c-0.54,0.23 -0.88,0.69 -1.03,1.37 -0.23,0.69 -0.11,1.3 0.34,1.83l18.11 26.13 17.65 -25.33c0.38,-0.61 0.48,-1.28 0.29,-2.01 -0.19,-0.72 -0.63,-1.24 -1.32,-1.55l-1.38 -0.69 0 -1.03 11.69 0 0 1.15 -0.34 0.11c-2.29,0.99 -4.16,2.52 -5.61,4.58l-19.48 27.96 0 17.19c0,2.37 0.99,4.01 2.98,4.93l0.34 0.11 0 1.15zm118.82 0l-13.07 0 0 -1.15 0.34 -0.11c2.22,-0.92 3.32,-2.56 3.32,-4.93l0 -43.32 -27.39 46.87 -27.16 -46.42 0 42.86c0,0.99 0.44,1.95 1.32,2.87 0.88,0.92 1.89,1.6 3.04,2.06l0.34 0.11 0 1.15 -12.72 0 0 -1.15 0.34 -0.11c1.15,-0.46 2.14,-1.15 2.98,-2.06 0.84,-0.92 1.26,-1.87 1.26,-2.87l0 -44.81c0,-0.99 -0.42,-1.95 -1.26,-2.87 -0.84,-0.92 -1.83,-1.6 -2.98,-2.06l-0.34 -0.11 0 -1.15 9.86 0 0.8 1.38 25.79 44.12 26.47 -45.04 0.92 -0.46 8.14 0 0 1.15 -0.34 0.11c-2.22,0.84 -3.32,2.48 -3.32,4.93l0 44.81c0,2.37 1.11,4.01 3.32,4.93l0.34 0.11 0 1.15zm36.41 0l-11.69 0 0 -1.15 0.57 -0.23c0.84,-0.46 1.6,-1.07 2.29,-1.83 0.76,-0.76 1.38,-1.68 1.83,-2.75l25.79 -53.29 1.26 0 24.18 53.29c1.22,2.29 2.75,3.86 4.58,4.7l0.23 0.11 0 1.15 -12.95 0 0 -1.15 0.34 -0.11c0.46,-0.23 0.88,-0.53 1.26,-0.92 0.08,-0.08 0.11,-0.11 0.11,-0.11 0.84,-0.99 0.96,-2.1 0.34,-3.32l-4.47 -9.74 -28.88 0c-2.22,0 -3.78,0.99 -4.7,2.98l-2.29 4.58c-0.23,0.46 -0.46,0.92 -0.69,1.38 -0.69,1.6 -0.38,2.94 0.92,4.01 0.53,0.46 1.11,0.84 1.72,1.15l0.23 0.11 0 1.15zm18.57 -48.94l-15.36 30.6 29 0 -13.64 -30.6z"/>
    <path id="_1_0" class="fil1" d="M13.36 177.54l-11.69 0 0 -1.15 0.57 -0.23c0.84,-0.46 1.6,-1.07 2.29,-1.83 0.76,-0.76 1.38,-1.68 1.83,-2.75l25.79 -53.29 1.26 0 24.18 53.29c1.22,2.29 2.75,3.86 4.58,4.7l0.23 0.11 0 1.15 -12.95 0 0 -1.15 0.34 -0.11c0.46,-0.23 0.88,-0.53 1.26,-0.92 0.08,-0.08 0.11,-0.11 0.11,-0.11 0.84,-0.99 0.96,-2.1 0.34,-3.32l-4.47 -9.74 -28.88 0c-2.22,0 -3.78,0.99 -4.7,2.98l-2.29 4.58c-0.23,0.46 -0.46,0.92 -0.69,1.38 -0.69,1.6 -0.38,2.94 0.92,4.01 0.53,0.46 1.11,0.84 1.72,1.15l0.23 0.11 0 1.15zm18.57 -48.94l-15.36 30.6 29 0 -13.64 -30.6zm72.05 48.94l-12.26 0 0 -1.15 0.34 -0.11c1.99,-0.92 2.98,-2.56 2.98,-4.93l0 -16.5 -20.97 -30.03c-0.99,-1.45 -2.29,-2.52 -3.9,-3.21l-0.23 -0.11 0 -1.15 12.15 0 0 1.15 -0.34 0.11c-0.54,0.23 -0.88,0.69 -1.03,1.37 -0.23,0.69 -0.11,1.3 0.34,1.83l18.11 26.13 17.65 -25.33c0.38,-0.61 0.48,-1.28 0.29,-2.01 -0.19,-0.72 -0.63,-1.24 -1.32,-1.55l-1.38 -0.69 0 -1.03 11.69 0 0 1.15 -0.34 0.11c-2.29,0.99 -4.16,2.52 -5.61,4.58l-19.48 27.96 0 17.19c0,2.37 0.99,4.01 2.98,4.93l0.34 0.11 0 1.15zm118.82 0l-13.07 0 0 -1.15 0.34 -0.11c2.22,-0.92 3.32,-2.56 3.32,-4.93l0 -43.32 -27.39 46.87 -27.16 -46.42 0 42.86c0,0.99 0.44,1.95 1.32,2.87 0.88,0.92 1.89,1.6 3.04,2.06l0.34 0.11 0 1.15 -12.72 0 0 -1.15 0.34 -0.11c1.15,-0.46 2.14,-1.15 2.98,-2.06 0.84,-0.92 1.26,-1.87 1.26,-2.87l0 -44.81c0,-0.99 -0.42,-1.95 -1.26,-2.87 -0.84,-0.92 -1.83,-1.6 -2.98,-2.06l-0.34 -0.11 0 -1.15 9.86 0 0.8 1.38 25.79 44.12 26.47 -45.04 0.92 -0.46 8.14 0 0 1.15 -0.34 0.11c-2.22,0.84 -3.32,2.48 -3.32,4.93l0 44.81c0,2.37 1.11,4.01 3.32,4.93l0.34 0.11 0 1.15zm36.41 0l-11.69 0 0 -1.15 0.57 -0.23c0.84,-0.46 1.6,-1.07 2.29,-1.83 0.76,-0.76 1.38,-1.68 1.83,-2.75l25.79 -53.29 1.26 0 24.18 53.29c1.22,2.29 2.75,3.86 4.58,4.7l0.23 0.11 0 1.15 -12.95 0 0 -1.15 0.34 -0.11c0.46,-0.23 0.88,-0.53 1.26,-0.92 0.08,-0.08 0.11,-0.11 0.11,-0.11 0.84,-0.99 0.96,-2.1 0.34,-3.32l-4.47 -9.74 -28.88 0c-2.22,0 -3.78,0.99 -4.7,2.98l-2.29 4.58c-0.23,0.46 -0.46,0.92 -0.69,1.38 -0.69,1.6 -0.38,2.94 0.92,4.01 0.53,0.46 1.11,0.84 1.72,1.15l0.23 0.11 0 1.15zm18.57 -48.94l-15.36 30.6 29 0 -13.64 -30.6z"/>
   </g>
   <g>
    <path class="fil1" d="M124.83 86.76l-17.12 0 0 -1.68 0.84 -0.34c1.23,-0.67 2.35,-1.57 3.36,-2.69 1.12,-1.12 2.01,-2.46 2.69,-4.03l20.95 -43.29 3.85 5.51 -9.86 19.65 15.39 0 0 4.36 -13.04 0c-3.24,0 -5.45,1.5 -6.88,4.36l-3.36 6.71c-0.34,0.67 -0.67,1.34 -1.01,2.01 -1.01,2.35 -0.56,4.31 1.34,5.88 0.78,0.67 1.62,1.23 2.52,1.68l0.33 0.17 0 1.68zm16.37 -63.61l11.15 -23.16 1.85 0 12.94 28.51 -5.58 8 -9.54 -21.41 -6.89 13.72 -3.93 -5.67zm30.03 13.45l18.38 41.43c1.54,3.48 4.07,5.56 6.71,6.88l0.34 0.17 0 1.68 -18.97 0 0 -1.68 0.51 -0.17c0.67,-0.34 1.29,-0.78 1.85,-1.34 0.11,-0.11 0.17,-0.17 0.17,-0.17 1.23,-1.45 1.4,-3.08 0.5,-4.87l-6.54 -14.27 -17.8 0 0 -4.36 15.62 0 -6.36 -15.27 5.6 -8.04z"/>
    <path class="fil1" d="M161.23 86.02l-17.96 0 0 -1.68 0.5 -0.17c2.91,-1.34 4.36,-3.75 4.36,-7.22l0 -24.17 -30.71 -43.97c-1.45,-2.13 -3.36,-3.69 -5.7,-4.7l-0.34 -0.17 0 -1.68 17.79 0 0 1.68 -0.5 0.17c-0.78,0.34 -1.29,1.01 -1.51,2.01 -0.34,1.01 -0.17,1.9 0.5,2.69l26.52 38.26 25.84 -37.09c0.56,-0.9 0.7,-1.87 0.42,-2.94 -0.28,-1.06 -0.92,-1.82 -1.93,-2.27l-2.01 -1.01 0 -1.51 17.12 0 0 1.68 -0.5 0.17c-3.36,1.45 -6.1,3.69 -8.22,6.71l-28.53 40.95 0 25.17c0,3.47 1.46,5.87 4.36,7.22l0.5 0.17 0 1.68z"/>
    <path class="fil1" d="M196.97 75.92l-5.15 0 -8.61 -19.4 0 -37.1 8.39 -11.18 0 58.62c0,3.47 1.63,5.87 4.87,7.21l0.5 0.17 0 1.68zm-15.69 0l-3.44 0 0 -1.68 0.5 -0.17c0.62,-0.26 1.18,-0.55 1.69,-0.89l1.25 2.74z"/>
    <path class="fil1" d="M107.15 75.92l5.5 0 8.27 -17.08 0 -39.42 -8.39 -11.18 0 58.62c0,3.47 -1.62,5.87 -4.87,7.22l-0.5 0.17 0 1.68zm12.13 0l7 0 0 -1.68 -0.5 -0.17c-1.78,-0.74 -3.07,-1.8 -3.88,-3.17 -0.28,0.41 -0.54,0.86 -0.78,1.35l-1.84 3.67z"/>
   </g>
  </g>
 </g>
</svg>
